<svg width="46" height="46" viewBox="0 0 46 46" fill="none" xmlns="http://www.w3.org/2000/svg">
<path d="M42.9706 18.7574V18.7538L42.8889 18.6795C41.9632 17.836 40.7612 17.424 39.5221 17.4647L39.5184 17.4649C38.2709 17.5245 37.1187 18.0649 36.2786 18.9888L29.9842 25.9061C29.2773 24.063 27.4885 22.7509 25.3973 22.7509H6.24887C3.67885 22.7509 1.59003 24.8412 1.59003 27.409V39.7518C1.59003 42.3197 3.67885 44.41 6.24887 44.41H26.0446H26.1566L26.2312 44.3263L43.228 25.2516C44.9028 23.3768 44.7807 20.487 42.9706 18.7574ZM41.5393 23.7444L41.7259 23.9107L41.5393 23.7444L25.1407 42.145H6.24887C4.92846 42.145 3.85356 41.0702 3.85356 39.7501V27.4073C3.85356 26.0872 4.92846 25.0124 6.24887 25.0124H25.3956C26.8537 25.0124 28.0431 26.2002 28.0431 27.6576C28.0431 28.9652 27.0659 30.0913 25.7849 30.2753C25.7844 30.2753 25.7839 30.2754 25.7834 30.2755L15.8032 31.5746L15.5553 31.6068L15.5875 31.8547L15.815 33.6021L15.8473 33.85L16.0952 33.8178L26.0909 32.5165L26.094 32.5161C27.9739 32.2473 29.4902 30.9115 30.0626 29.1808L37.9552 20.5102L37.9553 20.5101C38.3885 20.0338 38.9822 19.7545 39.6267 19.7241C40.2632 19.6954 40.8876 19.916 41.3651 20.352L41.3653 20.3521C42.3378 21.2383 42.4165 22.7603 41.5393 23.7444ZM8.89417 13.9328H8.64417V14.1828V15.2496C8.64417 17.717 10.652 19.7226 13.1178 19.7226H13.9348V21.2359V21.4859H14.1848H15.9483H16.1983V21.2359V19.7226H17.0153C19.4829 19.7226 21.4889 17.717 21.4889 15.2496C21.4889 13.0537 19.9156 11.1986 17.7512 10.8382C17.7512 10.8382 17.7512 10.8382 17.7511 10.8382L12.7534 10.0042L12.7531 10.0041C11.6834 9.82665 10.9077 8.91187 10.9077 7.82626C10.9077 6.60842 11.8997 5.61652 13.1178 5.61652H17.017C18.2351 5.61652 19.2271 6.60843 19.2271 7.82626V8.89304V9.14304H19.4771H21.2407H21.4907V8.89304V7.82626C21.4907 5.35882 19.4829 3.35326 17.017 3.35326H16.2001V1.84V1.59H15.9501H14.1865H13.9365V1.84V3.35326H13.1196C10.6519 3.35326 8.64593 5.35889 8.64593 7.82626C8.64593 10.0221 10.2192 11.8773 12.3836 12.2377C12.3836 12.2377 12.3837 12.2377 12.3837 12.2377L17.3815 13.0717L17.3817 13.0717C18.4514 13.2492 19.2271 14.164 19.2271 15.2496C19.2271 16.4674 18.2351 17.4593 17.017 17.4593H13.1178C11.8997 17.4593 10.9077 16.4674 10.9077 15.2496V14.1828V13.9328H10.6577H8.89417ZM36.0151 8.64304H24.766H24.516V8.89304V10.6563V10.9063H24.766H35.9465L31.0543 15.7993L30.8776 15.9761L31.0544 16.1528L32.3012 17.3995L32.4779 17.5762L32.6547 17.3995L38.2663 11.7888C39.3956 10.6596 39.3956 8.8227 38.2663 7.69355L32.6547 2.08286L32.4779 1.90613L32.3012 2.08286L31.0544 3.32949L30.8775 3.50628L31.0544 3.68307L36.0151 8.64304Z" fill="#3C3C3C" stroke="#3C3C3C" stroke-width="0.5"/>
</svg>
