<svg width="50" height="50" viewBox="0 0 50 50" fill="none" xmlns="http://www.w3.org/2000/svg">
<path d="M4 44.0002H3.75V44.2502V46V46.25H4H46H46.25V46V44.2502V44.0002H46H4ZM46 20.0029H46.25V19.7529V17.2087C46.25 15.1123 45.0836 13.2233 43.2085 12.2868L43.0967 12.5104L43.2084 12.2868L27.2856 4.33585C25.8524 3.55656 24.1473 3.55757 22.7406 4.32185L6.79154 12.2885C4.91654 13.225 3.75 15.1104 3.75 17.2087V19.7529V20.0029H4H9V37.001H5.75H5.5V37.251V39.0008V39.2508H5.75H44.25H44.5V39.0008V37.251V37.001H44.25H41V20.0029H46ZM44 17.2087V17.7531H6V17.2087C6 15.9664 6.68684 14.8545 7.79716 14.3002L7.7972 14.3002L23.7782 6.31928L23.7783 6.31945L23.7867 6.31484C24.5435 5.89993 25.4522 5.89838 26.2398 6.32898L26.2397 6.32913L26.2481 6.33329L42.2027 14.3001C42.2027 14.3001 42.2028 14.3001 42.2028 14.3002C43.3115 14.8545 44 15.9683 44 17.2087ZM17.75 20.0029V37.001H11.25V20.0029H17.75ZM20 20.0029H30V37.001H20V20.0029ZM32.25 37.001V20.0029H38.75V37.001H32.25Z" fill="currentColor" stroke="currentColor" stroke-width="0.5"/>
</svg>
