<svg width="24" height="24" viewBox="0 0 24 24" fill="none" xmlns="http://www.w3.org/2000/svg">
<path d="M19.17 6.63999C18.74 4.46999 17.13 3.51999 14.89 3.51999H6.11002C3.47002 3.51999 1.71002 4.83999 1.71002 7.91999V13.07C1.71002 15.29 2.62002 16.59 4.12002 17.15C4.34002 17.23 4.58002 17.3 4.83002 17.34C5.23002 17.43 5.66002 17.47 6.11002 17.47H14.9C17.54 17.47 19.3 16.15 19.3 13.07V7.91999C19.3 7.44999 19.26 7.02999 19.17 6.63999ZM5.53002 12C5.53002 12.41 5.19002 12.75 4.78002 12.75C4.37002 12.75 4.03002 12.41 4.03002 12V8.99999C4.03002 8.58999 4.37002 8.24999 4.78002 8.24999C5.19002 8.24999 5.53002 8.58999 5.53002 8.99999V12ZM10.5 13.14C9.04002 13.14 7.86002 11.96 7.86002 10.5C7.86002 9.03999 9.04002 7.85999 10.5 7.85999C11.96 7.85999 13.14 9.03999 13.14 10.5C13.14 11.96 11.96 13.14 10.5 13.14ZM16.96 12C16.96 12.41 16.62 12.75 16.21 12.75C15.8 12.75 15.46 12.41 15.46 12V8.99999C15.46 8.58999 15.8 8.24999 16.21 8.24999C16.62 8.24999 16.96 8.58999 16.96 8.99999V12Z" fill="currentColor"/>
<path d="M22.3 10.92V16.07C22.3 19.15 20.54 20.48 17.89 20.48H9.11001C8.36001 20.48 7.69001 20.37 7.11001 20.15C6.64001 19.98 6.23001 19.73 5.90001 19.41C5.72001 19.24 5.86001 18.97 6.11001 18.97H14.89C18.59 18.97 20.79 16.77 20.79 13.08V7.92C20.79 7.68 21.06 7.53 21.23 7.71C21.91 8.43 22.3 9.48 22.3 10.92Z" fill="currentColor"/>
</svg>
