<svg width="46" height="46" viewBox="0 0 46 46" fill="none" xmlns="http://www.w3.org/2000/svg">
<g clip-path="url(#clip0_300_1336)">
<path d="M43.2624 32.0479L43.4099 32.0346L43.4691 31.8989C44.66 29.1711 45.33 26.1637 45.33 23C45.33 19.8363 44.66 16.8308 43.4692 14.1012L43.4099 13.9654L43.2624 13.9521L43.2518 13.9512L43.2726 13.9073L43.3228 13.8016L43.2738 13.6954C39.737 6.02261 31.9909 0.670013 23 0.670013C14.0091 0.670013 6.26301 6.02261 2.72617 13.6954L2.6772 13.8016L2.72739 13.9073L2.74825 13.9512L2.7376 13.9521L2.59014 13.9654L2.5309 14.1011C1.34002 16.829 0.670013 19.8364 0.670013 23C0.670013 26.1637 1.34004 29.1692 2.53087 31.8989L2.59009 32.0346L2.7376 32.0479L2.74825 32.0488L2.72739 32.0927L2.6772 32.1984L2.72617 32.3047C6.263 39.9774 14.0072 45.33 23 45.33C31.9928 45.33 39.737 39.9774 43.2738 32.3047L43.3228 32.1984L43.2726 32.0927L43.2518 32.0488L43.2624 32.0479ZM42.99 23C42.99 25.505 42.5101 27.8963 41.663 30.11H33.1507C33.8417 27.8872 34.29 25.5045 34.29 23C34.29 20.4956 33.8417 18.1128 33.1507 15.89H41.663C42.5101 18.1037 42.99 20.495 42.99 23ZM30.6773 30.11H15.3227C14.5546 27.8828 14.05 25.4919 14.05 23C14.05 20.5082 14.5545 18.1155 15.3209 15.89H30.6773C31.4455 18.1172 31.95 20.5081 31.95 23C31.95 25.4919 31.4455 27.8828 30.6773 30.11ZM16.246 32.45H29.7504C27.5988 37.2509 24.4549 40.9325 22.9982 42.4862C21.5414 40.9325 18.3976 37.2509 16.246 32.45ZM29.7522 13.55H16.2458C18.3975 8.74414 21.543 5.06385 22.9999 3.5119C24.4566 5.0655 27.6006 8.7473 29.7522 13.55ZM32.3173 13.55C30.486 9.04094 27.7789 5.40767 25.9069 3.23078C32.2666 4.16111 37.654 8.0987 40.5941 13.55H32.3173ZM13.6808 13.55H5.40785C8.3477 8.10074 13.7313 4.16492 20.0889 3.23123C18.2086 5.41698 15.5042 9.05305 13.6808 13.55ZM3.01001 23C3.01001 20.495 3.48989 18.1037 4.33703 15.89H12.8477C12.1583 18.1113 11.71 20.4957 11.71 23C11.71 25.5045 12.1583 27.8872 12.8494 30.11H4.33703C3.48989 27.8963 3.01001 25.505 3.01001 23ZM13.6846 32.45C15.5158 36.9591 18.2229 40.5924 20.095 42.7692C13.7352 41.8389 8.3479 37.9013 5.40779 32.45H13.6846ZM32.3154 32.45H40.5904C37.6503 37.9014 32.2646 41.8389 25.905 42.7693C27.7771 40.5921 30.4842 36.9574 32.3154 32.45Z" fill="currentColor" stroke="currentColor" stroke-width="0.5"/>
</g>
<defs>
<clipPath id="clip0_300_1336">
<rect width="46" height="46" fill="currentColor"/>
</clipPath>
</defs>
</svg>
