<svg width="24" height="24" viewBox="0 0 24 24" fill="none" xmlns="http://www.w3.org/2000/svg">
<path fill-rule="evenodd" clip-rule="evenodd" d="M17 2H12C9.79086 2 8 3.79086 8 6V11.25L15 11.25C15.4142 11.25 15.75 11.5858 15.75 12C15.75 12.4142 15.4142 12.75 15 12.75L8 12.75V18C8 20.2091 9.79086 22 12 22H17C19.2091 22 21 20.2091 21 18V16V8V6C21 3.79086 19.2091 2 17 2ZM8 12.75H3.81066L5.53033 14.4697C5.82322 14.7626 5.82322 15.2374 5.53033 15.5303C5.23744 15.8232 4.76256 15.8232 4.46967 15.5303L2.17678 13.2374C1.49336 12.554 1.49336 11.446 2.17678 10.7626L4.46967 8.46967C4.76256 8.17678 5.23744 8.17678 5.53033 8.46967C5.82322 8.76256 5.82322 9.23744 5.53033 9.53033L3.81066 11.25H8V12.75Z" fill="currentColor"/>
</svg>
