<svg width="15" height="15" viewBox="0 0 18 18" fill="none" xmlns="http://www.w3.org/2000/svg">
<g clip-path="url(#clip0_1388_12762)">
<path d="M9.74999 0.749245C9.74999 0.550332 9.82901 0.359567 9.96966 0.218915C10.1103 0.0782622 10.3011 -0.000755399 10.5 -0.000755399C12.4884 0.0014283 14.3948 0.792306 15.8009 2.19836C17.2069 3.60441 17.9978 5.51079 18 7.49925C18 7.69816 17.921 7.88892 17.7803 8.02958C17.6397 8.17023 17.4489 8.24925 17.25 8.24925C17.0511 8.24925 16.8603 8.17023 16.7197 8.02958C16.579 7.88892 16.5 7.69816 16.5 7.49925C16.4982 5.90849 15.8655 4.38341 14.7407 3.25858C13.6158 2.13375 12.0907 1.50103 10.5 1.49924C10.3011 1.49924 10.1103 1.42023 9.96966 1.27957C9.82901 1.13892 9.74999 0.948157 9.74999 0.749245ZM10.5 4.49925C11.2956 4.49925 12.0587 4.81532 12.6213 5.37792C13.1839 5.94053 13.5 6.7036 13.5 7.49925C13.5 7.69816 13.579 7.88892 13.7197 8.02958C13.8603 8.17023 14.0511 8.24925 14.25 8.24925C14.4489 8.24925 14.6397 8.17023 14.7803 8.02958C14.921 7.88892 15 7.69816 15 7.49925C14.9988 6.30614 14.5243 5.16224 13.6807 4.31858C12.837 3.47492 11.6931 3.00044 10.5 2.99924C10.3011 2.99924 10.1103 3.07826 9.96966 3.21891C9.82901 3.35957 9.74999 3.55033 9.74999 3.74924C9.74999 3.94816 9.82901 4.13892 9.96966 4.27957C10.1103 4.42023 10.3011 4.49925 10.5 4.49925ZM17.3197 12.5535C17.7544 12.9893 17.9984 13.5797 17.9984 14.1952C17.9984 14.8108 17.7544 15.4012 17.3197 15.837L16.6372 16.6237C10.4947 22.5045 -4.45276 7.56074 1.33724 1.39874L2.19974 0.648745C2.63607 0.226253 3.22119 -0.00746859 3.82852 -0.00185427C4.43585 0.00376005 5.01655 0.248258 5.44499 0.678745C5.46824 0.701995 6.85799 2.50724 6.85799 2.50724C7.27036 2.94047 7.49992 3.51594 7.49894 4.11405C7.49796 4.71215 7.26653 5.28687 6.85274 5.71874L5.98424 6.81075C6.46488 7.97858 7.17154 9.03993 8.06362 9.93382C8.9557 10.8277 10.0156 11.5365 11.1825 12.0195L12.2812 11.1457C12.7132 10.7323 13.2878 10.5011 13.8857 10.5003C14.4836 10.4994 15.0589 10.729 15.492 11.1412C15.492 11.1412 17.2965 12.5302 17.3197 12.5535ZM16.2877 13.644C16.2877 13.644 14.493 12.2632 14.4697 12.24C14.3152 12.0868 14.1065 12.0008 13.8889 12.0008C13.6713 12.0008 13.4625 12.0868 13.308 12.24C13.2877 12.261 11.775 13.4662 11.775 13.4662C11.673 13.5474 11.5517 13.6006 11.423 13.6206C11.2942 13.6406 11.1625 13.6267 11.0407 13.5802C9.52908 13.0174 8.15604 12.1363 7.01462 10.9966C5.87319 9.85681 4.99004 8.48507 4.42499 6.97425C4.37489 6.85084 4.35855 6.71631 4.37767 6.5845C4.39678 6.45269 4.45065 6.32834 4.53374 6.22425C4.53374 6.22425 5.73899 4.71074 5.75924 4.69125C5.91244 4.53673 5.9984 4.32796 5.9984 4.11037C5.9984 3.89278 5.91244 3.68401 5.75924 3.52949C5.73599 3.50699 4.35524 1.71074 4.35524 1.71074C4.19841 1.57013 3.99374 1.49482 3.78317 1.50025C3.57261 1.50569 3.3721 1.59147 3.22274 1.73999L2.36024 2.48999C-1.87126 7.578 11.082 19.8127 15.5407 15.5992L16.224 14.8117C16.3841 14.6634 16.4803 14.4587 16.4922 14.2408C16.5041 14.0229 16.4308 13.8088 16.2877 13.644Z" fill="black"/>
</g>
<defs>
<clipPath id="clip0_1388_12762">
<rect width="18" height="18" fill="white"/>
</clipPath>
</defs>
</svg>
