<svg width="65" height="62" viewBox="0 0 65 62" fill="none" xmlns="http://www.w3.org/2000/svg">
<path d="M6 32.5857C26.9408 30.5971 34.392 12.7 35.5 4C38.1592 25.5429 56.2746 32.0333 65 32.5857C42.3972 36.2314 35.9155 53.7143 35.5 62C31.8437 40.4571 14.3099 33.4143 6 32.5857Z" fill="white"/>
<path d="M54 15.9286C57.9042 15.5857 59.2934 12.5 59.5 11C59.9958 14.7143 63.3732 15.8333 65 15.9286C60.7859 16.5571 59.5775 19.5714 59.5 21C58.8183 17.2857 55.5493 16.0714 54 15.9286Z" fill="#81A8C7"/>
<path d="M0 7.88571C6.38873 7.33714 8.66197 2.4 9 0C9.81127 5.94286 15.338 7.73333 18 7.88571C11.1042 8.89143 9.12676 13.7143 9 16C7.88451 10.0571 2.53521 8.11429 0 7.88571Z" fill="#81A8C7"/>
</svg>
